<svg xmlns="http://www.w3.org/2000/svg" width="20" height="26" viewBox="0 0 20 26">
  <defs>
    <style>
      .cls-1 {
        fill-rule: evenodd;
      }
    </style>
  </defs>
  <path fill="#fff" d="M1300.17,4512.99a10.55,10.55,0,0,0,.51,1.69,4.523,4.523,0,0,0,.95,1.48,3.21,3.21,0,0,0,1.42.87c0.15,0.03.24,0.05,0.26,0.05a0.815,0.815,0,0,0,.58-0.7,3.737,3.737,0,0,0,.24-1.15,1.2,1.2,0,0,0-.2-0.47c-0.13-.23-0.27-0.46-0.42-0.71a4.623,4.623,0,0,1-.42-1.02,4.558,4.558,0,0,1-.2-1.33,6.851,6.851,0,0,1,2.09-5.13,7.221,7.221,0,0,1,5.22-2.02,6.5,6.5,0,0,1,4.46,1.5,5.341,5.341,0,0,1,1.72,4.22,12.274,12.274,0,0,1-.11,1.55,14.727,14.727,0,0,1-.31,1.73,8.812,8.812,0,0,1-.59,1.73,9.43,9.43,0,0,1-.88,1.49,3.661,3.661,0,0,1-1.22,1.06,3.38,3.38,0,0,1-1.6.39,2.44,2.44,0,0,1-1.7-.65,2.12,2.12,0,0,1-.7-1.63,9.689,9.689,0,0,1,.68-2.92,9.922,9.922,0,0,0,.69-2.99,2.43,2.43,0,0,0-.53-1.6,1.828,1.828,0,0,0-1.48-.63,2.447,2.447,0,0,0-2.07,1.14,4.128,4.128,0,0,0-.81,2.44,6.061,6.061,0,0,0,.5,2.64c-0.07.31-.34,1.37-0.81,3.17s-0.82,3.3-1.04,4.49a17.161,17.161,0,0,0-.34,3.23c0,0.32.08,1.3,0.24,2.93l0.14,0.16,0.22-.08c0.38-.52.7-0.97,0.97-1.35a9.6,9.6,0,0,0,.71-1.21c0.22-.43.39-0.75,0.5-0.98a6.794,6.794,0,0,0,.41-1.11c0.16-.51.26-0.88,0.32-1.11s0.18-.71.37-1.48,0.33-1.35.44-1.76a3.124,3.124,0,0,0,1.5,1.38,4.862,4.862,0,0,0,2.1.5,7.184,7.184,0,0,0,2.96-.6,6.926,6.926,0,0,0,2.26-1.61,9.681,9.681,0,0,0,1.57-2.34,11.887,11.887,0,0,0,.93-2.77,14.208,14.208,0,0,0,.3-2.93,7.872,7.872,0,0,0-1.33-4.49,8.6,8.6,0,0,0-3.45-3.02,10.367,10.367,0,0,0-4.59-1.04,12.4,12.4,0,0,0-3.16.41,10.558,10.558,0,0,0-2.89,1.22,10.894,10.894,0,0,0-2.38,1.92,8.2,8.2,0,0,0-1.61,2.6,8.6,8.6,0,0,0-.59,3.18A8.743,8.743,0,0,0,1300.17,4512.99Z" transform="translate(-1300 -4502)"/>
</svg>
